<svg width="33" height="30" viewBox="0 0 33 30" fill="none" xmlns="http://www.w3.org/2000/svg">
<path d="M14.4416 0.705573C13.8033 0.230655 13.0193 -0.0176776 12.2181 0.000979545H3.53571C2.598 0.000979545 1.69866 0.365665 1.03559 1.01481C0.372511 1.66395 0 2.54438 0 3.46242V26.5386C0 27.4568 0.372511 28.3371 1.03559 28.9863C1.69866 29.6354 2.59797 30 3.53571 30H29.4643C30.402 30 31.3014 29.6354 31.9645 28.9863C32.6276 28.3371 33 27.4568 33 26.5386V8.07767C33 7.15963 32.6276 6.2792 31.9645 5.63007C31.3014 4.98091 30.402 4.61624 29.4643 4.61624H16.2416L15.735 2.63216C15.5411 1.8649 15.0844 1.18385 14.4416 0.705573Z" fill="#B6B6B6"/>
</svg>
