<svg width="30" height="28" viewBox="0 0 30 28" fill="none" xmlns="http://www.w3.org/2000/svg">
<path fill-rule="evenodd" clip-rule="evenodd" d="M11.25 6.01855L25.6206 0.221609C27.7277 -0.597811 30 0.95654 30 3.21734V20.8447C30 23.0385 27.8507 24.5878 25.7694 23.894L11.25 18.8757V6.01855ZM6.42857 6.01868H8.57143V17.8044V18.8758V21.0187C8.57143 22.2022 9.53083 23.1615 10.7143 23.1615H11.7857C12.9692 23.1615 13.9286 24.1209 13.9286 25.3044C13.9286 26.4879 12.9692 27.4472 11.7857 27.4472H10.7143C7.16389 27.4472 4.28571 24.5692 4.28571 21.0187V18.51C1.78887 17.6275 0 15.2463 0 12.4472C0 8.89686 2.87818 6.01868 6.42857 6.01868Z" fill="#B6B6B6"/>
</svg>
