<svg width="20" height="20" viewBox="0 0 20 20" fill="none" xmlns="http://www.w3.org/2000/svg">
<path fill-rule="evenodd" clip-rule="evenodd" d="M4.95527 3.13157V3.16659V4.98594C4.95527 5.05243 4.96023 5.11774 4.9698 5.1815C4.97388 5.20872 4.9788 5.23564 4.98454 5.26227C5.01981 5.42607 5.08581 5.57817 5.17605 5.71197C5.40334 6.04904 5.78445 6.27009 6.21631 6.27009H7.28504L12.715 6.27003L13.7825 6.27009C14.2144 6.27009 14.5956 6.04904 14.8228 5.71197C14.9621 5.50544 15.0436 5.25536 15.0436 4.98588V1.7219C15.0436 1.70503 15.0424 1.68852 15.0404 1.67241C15.0371 1.64771 15.0316 1.62399 15.0238 1.60142C14.9561 1.40334 14.7266 1.29491 14.5267 1.39667L13.8878 1.72195L13.2886 2.02705L13.2579 2.04271L12.5215 2.41765L10.2519 0.106522C10.1125 -0.0355075 9.88632 -0.0355068 9.74685 0.106522L7.47731 2.41765L6.74098 2.04273L6.71024 2.02708L6.111 1.72196L5.47213 1.39667C5.23467 1.27576 4.95527 1.4516 4.95527 1.72196V2.44932V3.13157ZM3.25643 5.72459C2.60058 5.80063 1.99211 6.21779 1.73468 6.89972C1.23687 8.21847 0.798551 9.99352 0.488553 11.6547C0.180016 13.308 -0.0146754 14.9194 0.000866678 15.9071C0.0184208 17.0226 0.186041 18.0566 0.729632 18.8189C1.31268 19.6366 2.21828 20 3.36716 20C3.47813 20 3.58757 19.9737 3.6868 19.923C4.55068 19.4828 5.28391 18.6379 5.89671 17.8647C6.08158 17.6314 6.25615 17.4041 6.42371 17.1859C6.7805 16.7213 7.10557 16.298 7.43008 15.9474H12.558C12.8511 16.2838 13.147 16.6907 13.4735 17.1397C13.64 17.3685 13.8145 17.6085 14.0005 17.8556C14.5848 18.6314 15.2967 19.4923 16.1423 19.923C16.2414 19.9737 16.3508 20 16.4618 20C17.6081 20 18.5396 19.6398 19.1641 18.8465C19.7616 18.0879 19.9811 17.0512 19.9991 15.9071C20.0146 14.927 19.823 13.333 19.5187 11.694C19.213 10.0468 18.7806 8.2844 18.2888 6.96272C18.0276 6.26044 17.4114 5.82627 16.7407 5.7316C16.4128 7.08495 15.2128 8.08852 13.7825 8.08852H6.21631C4.78358 8.08852 3.58184 7.08149 3.25643 5.72459ZM8.01194 12.3779C8.01194 13.4278 7.17615 14.2789 6.14517 14.2789C5.11417 14.2789 4.27838 13.4278 4.27838 12.3779C4.27838 11.328 5.11417 10.4769 6.14517 10.4769C7.17615 10.4769 8.01194 11.328 8.01194 12.3779ZM13.8549 14.2789C14.8858 14.2789 15.7217 13.4278 15.7217 12.3779C15.7217 11.328 14.8858 10.4769 13.8549 10.4769C12.8239 10.4769 11.9881 11.328 11.9881 12.3779C11.9881 13.4278 12.8239 14.2789 13.8549 14.2789Z" fill="#EBB901" fill-opacity="0.85"/>
</svg>
