<svg width="23" height="17" viewBox="0 0 23 17" fill="none" xmlns="http://www.w3.org/2000/svg">
<path fill-rule="evenodd" clip-rule="evenodd" d="M4.81801 2.44948C6.66326 1.12005 8.96277 0 11.5 0C14.0372 0 16.3367 1.12005 18.182 2.44948C20.034 3.78373 21.5001 5.38029 22.3875 6.45296L22.3949 6.46205C22.7914 6.95523 23 7.58021 23 8.21438C23 8.84854 22.7914 9.47354 22.3949 9.96672L22.3875 9.97581C21.5001 11.0485 20.034 12.645 18.182 13.9792C16.3367 15.3086 14.0372 16.4287 11.5 16.4287C8.96277 16.4287 6.66326 15.3086 4.81801 13.9792C2.96608 12.645 1.49997 11.0485 0.612441 9.97581L0.605031 9.96672C0.208684 9.47354 0 8.84854 0 8.21438C0 7.58021 0.208684 6.95523 0.605031 6.46205L0.612441 6.45296C1.49997 5.38029 2.96608 3.78373 4.81801 2.44948ZM11.5 11.9107C13.5415 11.9107 15.1964 10.2558 15.1964 8.21428C15.1964 6.17281 13.5415 4.51786 11.5 4.51786C9.45852 4.51786 7.80357 6.17281 7.80357 8.21428C7.80357 10.2558 9.45852 11.9107 11.5 11.9107Z" fill="#EBB901" fill-opacity="0.85"/>
</svg>
